<?xml version="1.0" encoding="UTF-8" standalone="no"?>
<!-- Created with Inkscape (http://www.inkscape.org/) -->

<svg
   xmlns:dc="http://purl.org/dc/elements/1.1/"
   xmlns:cc="http://creativecommons.org/ns#"
   xmlns:rdf="http://www.w3.org/1999/02/22-rdf-syntax-ns#"
   xmlns:svg="http://www.w3.org/2000/svg"
   xmlns="http://www.w3.org/2000/svg"
   xmlns:sodipodi="http://sodipodi.sourceforge.net/DTD/sodipodi-0.dtd"
   xmlns:inkscape="http://www.inkscape.org/namespaces/inkscape"
   width="244.8308mm"
   height="311.98074mm"
   viewBox="0 0 244.8308 311.98074"
   version="1.1"
   id="svg932"
   inkscape:version="0.92.3 (2405546, 2018-03-11)"
   sodipodi:docname="tree_rebase.svg"
   inkscape:export-filename="/home/seb/src/GitTutorial/tree_rebase.png"
   inkscape:export-xdpi="450"
   inkscape:export-ydpi="450">
  <defs
     id="defs926" />
  <sodipodi:namedview
     id="base"
     pagecolor="#ffffff"
     bordercolor="#666666"
     borderopacity="1.0"
     inkscape:pageopacity="0.0"
     inkscape:pageshadow="2"
     inkscape:zoom="0.7"
     inkscape:cx="289.84146"
     inkscape:cy="599.14341"
     inkscape:document-units="mm"
     inkscape:current-layer="layer1"
     showgrid="false"
     inkscape:window-width="1621"
     inkscape:window-height="1363"
     inkscape:window-x="405"
     inkscape:window-y="27"
     inkscape:window-maximized="0"
     inkscape:snap-global="false"
     fit-margin-top="10"
     fit-margin-left="5"
     fit-margin-right="5"
     fit-margin-bottom="10" />
  <metadata
     id="metadata929">
    <rdf:RDF>
      <cc:Work
         rdf:about="">
        <dc:format>image/svg+xml</dc:format>
        <dc:type
           rdf:resource="http://purl.org/dc/dcmitype/StillImage" />
        <dc:title></dc:title>
      </cc:Work>
    </rdf:RDF>
  </metadata>
  <g
     inkscape:label="Layer 1"
     inkscape:groupmode="layer"
     id="layer1"
     transform="translate(13.964405,5.1146747)">
    <path
       style="opacity:0.99299999;fill:#844a1c;fill-opacity:0.75784757;stroke:#000000;stroke-width:0.53538084;stroke-linecap:square;stroke-linejoin:round;stroke-miterlimit:4;stroke-dasharray:none;stroke-dashoffset:0;stroke-opacity:1;paint-order:normal"
       d="m 92.199992,296.27395 -7.07224,-0.166 1.31138,-3.484 c 3.14367,-8.35195 6.59373,-25.39737 8.80955,-43.52454 4.834338,-39.54874 7.067598,-92.55802 7.107748,-168.71125 l 0.0237,-44.965461 2.70273,-2.182686 c 1.48651,-1.200477 2.7769,-2.108517 2.86756,-2.017866 0.0906,0.09065 -0.1375,5.912593 -0.50699,12.937649 -0.9237,17.561846 -0.92158,98.312874 0.003,117.275204 1.97555,40.51395 5.32457,75.0857 10.04562,103.70058 1.67689,10.1638 5.11668,28.03039 5.89176,30.60235 0.26343,0.87413 -0.51742,0.92779 -11.91488,0.81873 -6.70823,-0.0642 -15.379288,-0.19143 -19.269018,-0.28271 z"
       id="path1544"
       inkscape:connector-curvature="0" />
    <path
       style="opacity:0.99299999;fill:#844a1c;fill-opacity:0.75784757;stroke:#000000;stroke-width:0.53538084;stroke-linecap:square;stroke-linejoin:round;stroke-miterlimit:4;stroke-dasharray:none;stroke-dashoffset:0;stroke-opacity:1;paint-order:normal"
       d="m 109.04239,176.81958 c -0.13272,-2.14059 -0.21234,-3.94016 -0.17693,-3.99904 0.0354,-0.0589 4.38607,-1.10518 9.66813,-2.32513 34.69994,-8.01429 61.94561,-19.81522 76.67429,-33.20997 2.26327,-2.05829 2.80606,-2.34201 3.06797,-1.60362 0.17502,0.49342 0.40657,1.06293 0.51456,1.26559 0.26461,0.49657 -8.92956,7.01985 -15.96551,11.32756 -10.09926,6.1832 -17.54866,9.63905 -37.58232,17.43485 -11.56553,4.50055 -27.0323,10.97702 -31.27053,13.09406 -4.76256,2.37895 -4.65647,2.42166 -4.92966,-1.9843 z"
       id="path1548"
       inkscape:connector-curvature="0" />
    <path
       style="opacity:0.99299999;fill:#844a1c;fill-opacity:0.75784757;stroke:#000000;stroke-width:0.53538084;stroke-linecap:square;stroke-linejoin:round;stroke-miterlimit:4;stroke-dasharray:none;stroke-dashoffset:0;stroke-opacity:1;paint-order:normal"
       d="m 162.6151,149.4504 c 0,-7.66391 -0.91489,-20.90084 -1.84251,-26.65824 -0.38881,-2.41315 -0.66402,-4.43815 -0.61158,-4.49998 0.0525,-0.0618 0.59191,0.0174 1.19882,0.17613 1.00723,0.2634 1.13554,0.83258 1.47135,6.5269 0.4577,7.76128 1.55325,15.27918 3.27168,22.45093 0.7277,3.037 1.32309,5.71699 1.32309,5.95553 0,0.36691 -3.77839,2.1534 -4.5544,2.1534 -0.14104,0 -0.25645,-2.7471 -0.25645,-6.10467 z"
       id="path1550"
       inkscape:connector-curvature="0" />
    <path
       style="opacity:0.99299999;fill:#844a1c;fill-opacity:0.75784757;stroke:#000000;stroke-width:0.53538084;stroke-linecap:square;stroke-linejoin:round;stroke-miterlimit:4;stroke-dasharray:none;stroke-dashoffset:0;stroke-opacity:1;paint-order:normal"
       d="m 90.719602,219.03678 c -3.52796,-2.03348 -17.5997,-9.23392 -31.27054,-16.00099 -25.38687,-12.5665 -32.45975,-16.37775 -38.35317,-20.66676 -3.09924,-2.2555 -3.80957,-3.1819 -3.03426,-3.95721 0.16864,-0.16864 2.39366,1.08328 4.94449,2.78204 8.08114,5.38173 22.07067,12.47016 35.90841,18.19462 7.78554,3.22076 27.10815,10.42491 33.67596,12.55558 2.49896,0.81069 4.70088,1.62452 4.89313,1.80851 0.19226,0.18399 0.19226,2.28009 0,4.65799 l -0.34955,4.32345 z"
       id="path1554"
       inkscape:connector-curvature="0" />
    <path
       style="opacity:0.99299999;fill:#38d170;fill-opacity:0.62780265;stroke:none;stroke-width:0.1122368;stroke-linecap:square;stroke-linejoin:round;stroke-miterlimit:4;stroke-dasharray:none;stroke-dashoffset:0;stroke-opacity:1;paint-order:normal"
       d="m 171.8275,117.68603 c -0.46226,-0.0498 -1.18002,-0.15145 -1.59504,-0.22581 l -0.75457,-0.1352 0.29498,-0.5211 c 0.6606,-1.16697 2.19827,-3.38692 3.03881,-4.38718 1.04975,-1.24921 3.18404,-3.34851 4.43898,-4.3662 1.20032,-0.97341 3.41164,-2.4379 4.58954,-3.03953 0.53251,-0.27198 0.96842,-0.52743 0.9687,-0.56767 5.9e-4,-0.0978 -1.30953,0.29896 -2.35276,0.71245 -4.7165,1.86938 -8.85639,5.38642 -11.56006,9.82082 l -0.65452,1.0735 v -1.24171 c 0,-3.30939 1.1378,-6.13559 3.35773,-8.34035 1.6531,-1.6418 3.42848,-2.61267 7.03934,-3.84947 3.79227,-1.29894 5.82125,-2.18303 7.33762,-3.197254 0.47293,-0.31631 0.98495,-0.73494 1.13783,-0.93028 0.15287,-0.19534 0.31706,-0.31607 0.36484,-0.26829 0.16645,0.16646 0.0876,3.889704 -0.10597,5.005044 -1.19473,6.88316 -5.06262,12.19178 -10.11053,13.87655 -1.57205,0.52468 -3.776,0.76057 -5.43492,0.58168 z"
       id="path894"
       inkscape:connector-curvature="0" />
    <path
       style="opacity:0.99299999;fill:#32801c;fill-opacity:0.75784757;stroke:none;stroke-width:0.10068367;stroke-linecap:square;stroke-linejoin:round;stroke-miterlimit:4;stroke-dasharray:none;stroke-dashoffset:0;stroke-opacity:1;paint-order:normal"
       d="m 28.115422,174.86 c 0.358701,0.11037 0.925869,0.25967 1.260319,0.33184 l 0.608098,0.13123 0.0024,-0.57262 c 0.0053,-1.28234 -0.189918,-3.81636 -0.385858,-5.00785 -0.244709,-1.48804 -0.926513,-4.11331 -1.41806,-5.46014 -0.470133,-1.28822 -1.473812,-3.36283 -2.083096,-4.30582 -0.27544,-0.42631 -0.487199,-0.80508 -0.470569,-0.84171 0.04038,-0.0891 0.832106,0.71238 1.421653,1.43915 2.665406,3.28571 4.220078,7.87388 4.341224,12.8118 l 0.02932,1.19539 0.519445,-1.12784 c 1.384419,-3.0059 1.735065,-5.95596 1.034778,-8.70585 -0.521489,-2.04774 -1.413017,-3.52725 -3.534908,-5.8662 -2.228489,-2.45644 -3.341684,-3.9425 -4.02576,-5.37418 -0.213357,-0.44651 -0.412485,-0.99912 -0.442507,-1.22801 -0.03002,-0.22889 -0.09952,-0.39382 -0.154446,-0.3665 -0.191297,0.0952 -1.691211,3.5035 -2.016279,4.58173 -2.006174,6.65413 -1.399786,12.77803 1.58508,16.00763 0.929567,1.00578 2.441812,1.96198 3.729203,2.35795 z"
       id="path894-5-6"
       inkscape:connector-curvature="0" />
    <path
       style="opacity:0.99299999;fill:#5ad138;fill-opacity:1;stroke:none;stroke-width:0.1122368;stroke-linecap:square;stroke-linejoin:round;stroke-miterlimit:4;stroke-dasharray:none;stroke-dashoffset:0;stroke-opacity:1;paint-order:normal"
       d="m 210.12431,130.94833 c -0.46226,-0.0498 -1.18002,-0.15145 -1.59504,-0.22581 l -0.75457,-0.1352 0.29498,-0.5211 c 0.6606,-1.16697 2.19827,-3.38693 3.03881,-4.38719 1.04975,-1.24921 3.18404,-3.34851 4.43898,-4.3662 1.20032,-0.97341 3.41164,-2.4379 4.58954,-3.03953 0.53251,-0.27198 0.96842,-0.52743 0.9687,-0.56767 5.8e-4,-0.0978 -1.30953,0.29896 -2.35276,0.71245 -4.7165,1.86938 -8.85639,5.38642 -11.56006,9.82083 l -0.65452,1.0735 v -1.24171 c 0,-3.3094 1.1378,-6.1356 3.35773,-8.34036 1.6531,-1.6418 3.42848,-2.61267 7.03934,-3.84947 3.79227,-1.29894 5.82125,-2.18303 7.33762,-3.19724 0.47293,-0.31631 0.98495,-0.73494 1.13783,-0.93028 0.15287,-0.19534 0.31706,-0.31607 0.36484,-0.26829 0.16645,0.16646 0.0876,3.88969 -0.10597,5.00503 -1.19473,6.88316 -5.06262,12.19179 -10.11053,13.87656 -1.57205,0.52468 -3.776,0.76057 -5.43492,0.58168 z"
       id="path894-9"
       inkscape:connector-curvature="0" />
    <path
       style="opacity:0.99299999;fill:#66bb4e;fill-opacity:1;stroke:none;stroke-width:0.1122368;stroke-linecap:square;stroke-linejoin:round;stroke-miterlimit:4;stroke-dasharray:none;stroke-dashoffset:0;stroke-opacity:1;paint-order:normal"
       d="m 198.7439,154.27604 c -0.16647,-0.43411 -0.4033,-1.11926 -0.52637,-1.52252 l -0.22375,-0.73321 0.59827,0.0249 c 1.33982,0.0558 4.01671,0.41199 5.29021,0.70394 1.59046,0.36462 4.43202,1.30682 5.91,1.95963 1.41366,0.6244 3.72538,1.92463 4.79794,2.69859 0.48488,0.34991 0.911,0.62137 0.94694,0.60327 0.0873,-0.0441 -0.86321,-1.02913 -1.70692,-1.76903 -3.81442,-3.34517 -8.8323,-5.42584 -14.01171,-5.80998 l -1.25385,-0.093 1.1051,-0.56622 c 2.9453,-1.50908 5.9794,-1.78519 8.95388,-0.81486 2.21498,0.72257 3.8886,1.85991 6.63587,4.50954 2.8853,2.78273 4.59733,4.18535 6.19142,5.07241 0.49716,0.27666 1.10321,0.54146 1.34677,0.58844 0.24356,0.047 0.42588,0.13805 0.40514,0.20237 -0.0722,0.22404 -3.4218,1.85164 -4.5027,2.18796 -6.67068,2.07541 -13.15901,1.05378 -16.96025,-2.67052 -1.18381,-1.15984 -2.39874,-3.01375 -2.99599,-4.57173 z"
       id="path894-9-2"
       inkscape:connector-curvature="0" />
    <path
       style="opacity:0.99299999;fill:#72821e;fill-opacity:1;stroke:none;stroke-width:0.1122368;stroke-linecap:square;stroke-linejoin:round;stroke-miterlimit:4;stroke-dasharray:none;stroke-dashoffset:0;stroke-opacity:1;paint-order:normal"
       d="m 171.49935,169.18846 c -0.0378,-0.46339 -0.0727,-1.18748 -0.0775,-1.60908 l -0.009,-0.76653 0.56719,0.19194 c 1.27021,0.42987 3.73931,1.52359 4.8795,2.16155 1.42402,0.79667 3.88655,2.49908 5.12165,3.54075 1.18138,0.99632 3.03482,2.89353 3.84681,3.9376 0.36708,0.47202 0.69979,0.85225 0.73937,0.84496 0.0962,-0.0178 -0.53939,-1.23015 -1.14131,-2.17726 -2.72127,-4.28189 -6.95272,-7.68823 -11.81572,-9.5117 l -1.17724,-0.44149 1.21966,-0.23301 c 3.2506,-0.62105 6.24011,-0.0338 8.82229,1.73292 1.92285,1.31563 3.20965,2.87727 5.10209,6.19188 1.98752,3.48114 3.23666,5.30817 4.51742,6.60727 0.39945,0.40517 0.90672,0.82954 1.12728,0.94304 0.22055,0.11353 0.36996,0.25209 0.33199,0.30801 -0.13228,0.19472 -3.80416,0.81598 -4.93601,0.83516 -6.98507,0.11819 -12.92524,-2.68477 -15.52737,-7.32683 -0.81037,-1.44567 -1.45566,-3.56619 -1.59126,-5.2292 z"
       id="path894-9-7"
       inkscape:connector-curvature="0"
       inkscape:transform-center-x="8.5041086"
       inkscape:transform-center-y="-4.6840427" />
    <path
       style="opacity:0.99299999;fill:#58d336;fill-opacity:0.75784757;stroke:none;stroke-width:0.10068367;stroke-linecap:square;stroke-linejoin:round;stroke-miterlimit:4;stroke-dasharray:none;stroke-dashoffset:0;stroke-opacity:1;paint-order:normal"
       d="m 9.3116124,174.54713 c 0.33518,-0.16883 0.8476696,-0.454 1.1388896,-0.6336 l 0.5295,-0.32654 -0.3949,-0.41466 c -0.8843596,-0.92862 -2.7803596,-2.62112 -3.7469696,-3.3448 -1.20718,-0.9038 -3.51733,-2.3251 -4.80475,-2.95608 -1.23137002,-0.60353 -3.39228,-1.40471 -4.48489,-1.66285 -0.49396,-0.11671 -0.90905,-0.24323 -0.92242,-0.28117 -0.0326,-0.0922 1.09361,-0.0625 2.02222,0.0533 4.19834,0.52375 8.49766,2.75626 12.0052596,6.23397 l 0.84913,0.8419 -0.40653,-1.17328 c -1.08347,-3.127 -2.8738896,-5.49769 -5.2836896,-6.99608 -1.7945,-1.11579 -3.46231,-1.56541 -6.61285002,-1.78274 -3.30879998,-0.22823 -5.14102998,-0.52904 -6.62608998,-1.08786 -0.46316,-0.17428 -0.98955,-0.43494 -1.16974,-0.57924 -0.1802,-0.1443 -0.34456,-0.21512 -0.36526,-0.15737 -0.0721,0.20113 1.20684,3.6984 1.71921,4.70127 3.16194,6.18905 7.84098998,10.18608 12.23088,10.44807 1.36712,0.0816 3.12018,-0.27617 4.32302,-0.88226 z"
       id="path894-5-6-3"
       inkscape:connector-curvature="0"
       inkscape:transform-center-x="-47.625"
       inkscape:transform-center-y="-26.83631" />
    <path
       style="opacity:0.99299999;fill:#32811c;fill-opacity:0.75784757;stroke:none;stroke-width:0.10068367;stroke-linecap:square;stroke-linejoin:round;stroke-miterlimit:4;stroke-dasharray:none;stroke-dashoffset:0;stroke-opacity:1;paint-order:normal"
       d="m 22.557232,194.61843 c 0.14886,-0.34451 0.35916,-0.892 0.46739,-1.21658 l 0.19681,-0.59014 -0.56894,-0.0649 c -1.27409,-0.14523 -3.81429,-0.22767 -5.02005,-0.16293 -1.50586,0.0809 -4.18985,0.47212 -5.58228,0.81376 -1.33182,0.32674 -3.5035696,1.09804 -4.5074196,1.60078 -0.45382,0.22727 -0.85344,0.39643 -0.88804,0.37591 -0.0841,-0.0499 0.79894,-0.7494 1.5857,-1.25612 3.5569496,-2.29093 8.2873696,-3.33564 13.2090296,-2.91721 l 1.19145,0.1013 -1.06442,-0.63941 c -2.83688,-1.70418 -5.73106,-2.37465 -8.54094,-1.97863 -2.09243,0.29491 -3.6603796,1.01967 -6.2169196,2.87365 -2.68496,1.94712 -4.28361,2.8915 -5.78139,3.41526 -0.46713002,0.16335 -1.03817001905,0.30099 -1.26897002,0.30585 -0.2308,0.005 -0.40232,0.0559 -0.38116,0.11353 0.0737,0.20054 3.29801002,2.06343 4.33433002,2.50422 6.3954796,2.72033 12.5489696,2.78583 16.0850096,0.17122 1.10121,-0.81425 2.21672,-2.21312 2.75082,-3.44961 z"
       id="path894-5-6-6"
       inkscape:connector-curvature="0" />
    <path
       style="opacity:0.99299999;fill:#5ad138;fill-opacity:1;stroke:none;stroke-width:0.1122368;stroke-linecap:square;stroke-linejoin:round;stroke-miterlimit:4;stroke-dasharray:none;stroke-dashoffset:0;stroke-opacity:1;paint-order:normal"
       d="m 58.933836,191.04655 c -0.46226,-0.0498 -1.18002,-0.15145 -1.59504,-0.22581 l -0.75457,-0.1352 0.29498,-0.5211 c 0.6606,-1.16697 2.19827,-3.38693 3.03881,-4.38719 1.04975,-1.24921 3.18404,-3.34851 4.43898,-4.3662 1.20032,-0.97341 3.41164,-2.4379 4.58954,-3.03953 0.53251,-0.27198 0.96842,-0.52743 0.9687,-0.56767 5.82e-4,-0.0978 -1.30953,0.29896 -2.35276,0.71245 -4.7165,1.86938 -8.85639,5.38642 -11.56006,9.82083 l -0.65452,1.0735 v -1.24171 c 0,-3.3094 1.1378,-6.1356 3.35773,-8.34036 1.6531,-1.6418 3.42848,-2.61267 7.03934,-3.84947 3.79227,-1.29894 5.82125,-2.18303 7.33762,-3.19724 0.47293,-0.31631 0.98495,-0.73494 1.13783,-0.93028 0.15287,-0.19534 0.31706,-0.31607 0.36484,-0.26829 0.16645,0.16646 0.0876,3.88969 -0.10597,5.00503 -1.19473,6.88316 -5.06262,12.19179 -10.11053,13.87656 -1.57205,0.52468 -3.776,0.76057 -5.43492,0.58168 z"
       id="path894-9-70"
       inkscape:connector-curvature="0" />
    <path
       style="opacity:0.99299999;fill:#5ad138;fill-opacity:1;stroke:none;stroke-width:0.1122368;stroke-linecap:square;stroke-linejoin:round;stroke-miterlimit:4;stroke-dasharray:none;stroke-dashoffset:0;stroke-opacity:1;paint-order:normal"
       d="m 145.55128,124.52273 c 0.46226,-0.0498 1.18002,-0.15145 1.59504,-0.22581 l 0.75457,-0.1352 -0.29498,-0.5211 c -0.6606,-1.16697 -2.19827,-3.38692 -3.03881,-4.38718 -1.04975,-1.24921 -3.18404,-3.34851 -4.43898,-4.3662 -1.20032,-0.97341 -3.41164,-2.4379 -4.58954,-3.03953 -0.53251,-0.27198 -0.96842,-0.52743 -0.9687,-0.56767 -5.8e-4,-0.0978 1.30953,0.29896 2.35276,0.71245 4.7165,1.86938 8.85639,5.38642 11.56006,9.82082 l 0.65452,1.0735 v -1.24171 c 0,-3.30939 -1.1378,-6.13559 -3.35773,-8.34035 -1.6531,-1.6418 -3.42848,-2.61267 -7.03934,-3.84947 -3.79227,-1.29894 -5.82125,-2.18303 -7.33762,-3.19725 -0.47293,-0.31631 -0.98495,-0.73494 -1.13783,-0.93028 -0.15287,-0.19534 -0.31706,-0.31607 -0.36484,-0.26829 -0.16645,0.16646 -0.0876,3.8897 0.10597,5.00504 1.19473,6.88316 5.06262,12.19178 10.11053,13.87655 1.57205,0.52468 3.776,0.76057 5.43492,0.58168 z"
       id="path894-2-6"
       inkscape:connector-curvature="0" />
    <text
       xml:space="preserve"
       style="font-style:normal;font-variant:normal;font-weight:normal;font-stretch:normal;font-size:16.93333244px;line-height:1.25;font-family:sans-serif;-inkscape-font-specification:sans-serif;font-variant-ligatures:normal;font-variant-caps:normal;font-variant-numeric:normal;font-feature-settings:normal;text-align:start;letter-spacing:0px;word-spacing:0px;writing-mode:lr-tb;text-anchor:start;fill:#000000;fill-opacity:1;stroke:none;stroke-width:0.26458332"
       x="123.9969"
       y="285.32144"
       id="text1664"><tspan
         sodipodi:role="line"
         id="tspan1662"
         x="123.9969"
         y="285.32144"
         style="stroke-width:0.26458332">master</tspan></text>
    <text
       xml:space="preserve"
       style="font-style:normal;font-variant:normal;font-weight:normal;font-stretch:normal;font-size:11.07267475px;line-height:1.25;font-family:sans-serif;-inkscape-font-specification:sans-serif;font-variant-ligatures:normal;font-variant-caps:normal;font-variant-numeric:normal;font-feature-settings:normal;text-align:start;letter-spacing:0px;word-spacing:0px;writing-mode:lr-tb;text-anchor:start;fill:#000000;fill-opacity:1;stroke:none;stroke-width:0.17301054"
       x="28.875212"
       y="216.39011"
       id="text1664-6"><tspan
         sodipodi:role="line"
         id="tspan1662-2"
         x="28.875212"
         y="216.39011"
         style="stroke-width:0.17301054">idea1</tspan></text>
    <text
       xml:space="preserve"
       style="font-style:normal;font-variant:normal;font-weight:normal;font-stretch:normal;font-size:11.07267475px;line-height:1.25;font-family:sans-serif;-inkscape-font-specification:sans-serif;font-variant-ligatures:normal;font-variant-caps:normal;font-variant-numeric:normal;font-feature-settings:normal;text-align:start;letter-spacing:0px;word-spacing:0px;writing-mode:lr-tb;text-anchor:start;fill:#000000;fill-opacity:1;stroke:none;stroke-width:0.17301054"
       x="120.32973"
       y="183.61603"
       id="text1664-6-9"><tspan
         sodipodi:role="line"
         id="tspan1662-2-7"
         x="120.32973"
         y="183.61603"
         style="stroke-width:0.17301054">nature1</tspan></text>
    <text
       xml:space="preserve"
       style="font-style:normal;font-variant:normal;font-weight:normal;font-stretch:normal;font-size:11.07267475px;line-height:1.25;font-family:sans-serif;-inkscape-font-specification:sans-serif;font-variant-ligatures:normal;font-variant-caps:normal;font-variant-numeric:normal;font-feature-settings:normal;text-align:start;letter-spacing:0px;word-spacing:0px;writing-mode:lr-tb;text-anchor:start;fill:#000000;fill-opacity:1;stroke:none;stroke-width:0.17301054"
       x="140.11412"
       y="108.60641"
       id="text1664-6-9-3"><tspan
         sodipodi:role="line"
         id="tspan1662-2-7-6"
         x="140.11412"
         y="108.60641"
         style="stroke-width:0.17301054">nature1_rebut</tspan></text>
    <path
       style="fill:none;stroke:#ffffff;stroke-width:1.46500015;stroke-linecap:round;stroke-linejoin:miter;stroke-miterlimit:4;stroke-dasharray:none;stroke-opacity:1"
       d="M 106.57257,284.86709 C 102.59826,156.19863 104.47022,106.43136 104.47022,106.43136"
       id="path1709"
       inkscape:connector-curvature="0"
       sodipodi:nodetypes="cc" />
    <ellipse
       style="opacity:0.99299999;fill:#343b0e;fill-opacity:1;stroke:#ffffff;stroke-width:1.46500003;stroke-linecap:round;stroke-linejoin:round;stroke-miterlimit:4;stroke-dasharray:none;stroke-dashoffset:0;stroke-opacity:1;paint-order:normal"
       id="path1711"
       cx="106.57256"
       cy="285.19781"
       rx="2.1733632"
       ry="2.2206101" />
    <ellipse
       style="opacity:0.99299999;fill:#343b0e;fill-opacity:1;stroke:#ffffff;stroke-width:1.46500015;stroke-linecap:round;stroke-linejoin:round;stroke-miterlimit:4;stroke-dasharray:none;stroke-dashoffset:0;stroke-opacity:1;paint-order:normal"
       id="path1711-6"
       cx="105.84563"
       cy="254.40492"
       rx="2.1733632"
       ry="2.2206101" />
    <ellipse
       style="opacity:0.99299999;fill:#343b0e;fill-opacity:1;stroke:#ffffff;stroke-width:1.46500015;stroke-linecap:round;stroke-linejoin:round;stroke-miterlimit:4;stroke-dasharray:none;stroke-dashoffset:0;stroke-opacity:1;paint-order:normal"
       id="path1711-8"
       cx="104.50927"
       cy="176.89674"
       rx="2.1733632"
       ry="2.2206101" />
    <path
       style="fill:none;stroke:#ffffff;stroke-width:0.965;stroke-linecap:round;stroke-linejoin:miter;stroke-opacity:1;stroke-miterlimit:4;stroke-dasharray:none"
       d="M 105.09809,218.9866 C 42.165059,196.875 23.455238,182.32291 23.455238,182.32291"
       id="path4878"
       inkscape:connector-curvature="0"
       sodipodi:nodetypes="cc" />
    <ellipse
       style="opacity:0.99299999;fill:#343b0e;fill-opacity:1;stroke:#ffffff;stroke-width:1.46500015;stroke-linecap:round;stroke-linejoin:round;stroke-miterlimit:4;stroke-dasharray:none;stroke-dashoffset:0;stroke-opacity:1;paint-order:normal"
       id="path1711-1"
       cx="105.04379"
       cy="219.12532"
       rx="2.1733632"
       ry="2.2206101" />
    <ellipse
       style="opacity:0.99299999;fill:#343b0e;fill-opacity:1;stroke:#ffffff;stroke-width:1.0672332;stroke-linecap:round;stroke-linejoin:round;stroke-miterlimit:4;stroke-dasharray:none;stroke-dashoffset:0;stroke-opacity:1;paint-order:normal"
       id="path1711-1-1"
       cx="75.316452"
       cy="208.10997"
       rx="1.5832663"
       ry="1.6176851" />
    <ellipse
       style="opacity:0.99299999;fill:#343b0e;fill-opacity:1;stroke:#ffffff;stroke-width:0.62931269;stroke-linecap:round;stroke-linejoin:round;stroke-miterlimit:4;stroke-dasharray:none;stroke-dashoffset:0;stroke-opacity:1;paint-order:normal"
       id="path1711-1-1-9"
       cx="48.877342"
       cy="196.3694"
       rx="0.93360054"
       ry="0.95389622" />
    <ellipse
       style="opacity:0.99299999;fill:#343b0e;fill-opacity:1;stroke:#ffffff;stroke-width:0.62931269;stroke-linecap:round;stroke-linejoin:round;stroke-miterlimit:4;stroke-dasharray:none;stroke-dashoffset:0;stroke-opacity:1;paint-order:normal"
       id="path1711-1-1-9-4"
       cx="23.319693"
       cy="182.71938"
       rx="0.93360054"
       ry="0.95389622" />
    <path
       style="fill:none;stroke:#000000;stroke-width:0.26458332px;stroke-linecap:butt;stroke-linejoin:miter;stroke-opacity:1"
       d="M 127.77667,84.616066 108.87786,104.27083"
       id="path899"
       inkscape:connector-curvature="0" />
    <text
       xml:space="preserve"
       style="font-style:normal;font-variant:normal;font-weight:normal;font-stretch:normal;font-size:16.93333244px;line-height:1.25;font-family:sans-serif;-inkscape-font-specification:sans-serif;font-variant-ligatures:normal;font-variant-caps:normal;font-variant-numeric:normal;font-feature-settings:normal;text-align:start;letter-spacing:0px;word-spacing:0px;writing-mode:lr-tb;text-anchor:start;fill:#000000;fill-opacity:1;stroke:none;stroke-width:0.26458332"
       x="130.80048"
       y="75.54464"
       id="text903"><tspan
         sodipodi:role="line"
         id="tspan901"
         x="130.80048"
         y="90.526672"
         style="stroke-width:0.26458332" /></text>
    <text
       xml:space="preserve"
       style="font-style:normal;font-variant:normal;font-weight:normal;font-stretch:normal;font-size:10.58428669px;line-height:1.25;font-family:sans-serif;-inkscape-font-specification:sans-serif;font-variant-ligatures:normal;font-variant-caps:normal;font-variant-numeric:normal;font-feature-settings:normal;text-align:start;letter-spacing:0px;word-spacing:0px;writing-mode:lr-tb;text-anchor:start;fill:#000000;fill-opacity:1;stroke:none;stroke-width:0.16537948"
       x="130.77765"
       y="74.954781"
       id="text1664-6-9-1-7-3-3"><tspan
         sodipodi:role="line"
         id="tspan1662-2-7-2-5-6-56"
         x="130.77765"
         y="74.954781"
         style="stroke-width:0.16537948">some urgent</tspan></text>
    <text
       xml:space="preserve"
       style="font-style:normal;font-variant:normal;font-weight:normal;font-stretch:normal;font-size:10.58428669px;line-height:1.25;font-family:sans-serif;-inkscape-font-specification:sans-serif;font-variant-ligatures:normal;font-variant-caps:normal;font-variant-numeric:normal;font-feature-settings:normal;text-align:start;letter-spacing:0px;word-spacing:0px;writing-mode:lr-tb;text-anchor:start;fill:#000000;fill-opacity:1;stroke:none;stroke-width:0.16537948"
       x="129.74348"
       y="86.402122"
       id="text1664-6-9-1-7-3-3-9"><tspan
         sodipodi:role="line"
         id="tspan1662-2-7-2-5-6-56-1"
         x="129.74348"
         y="86.402122"
         style="stroke-width:0.16537948">commit on master</tspan></text>
    <g
       id="g1794"
       transform="translate(-0.05535334,0.46210095)">
      <g
         transform="translate(0,-0.75595238)"
         id="g1692">
        <text
           xml:space="preserve"
           style="font-style:normal;font-variant:normal;font-weight:normal;font-stretch:normal;font-size:6.89658451px;line-height:1.25;font-family:sans-serif;-inkscape-font-specification:sans-serif;font-variant-ligatures:normal;font-variant-caps:normal;font-variant-numeric:normal;font-feature-settings:normal;text-align:start;letter-spacing:0px;word-spacing:0px;writing-mode:lr-tb;text-anchor:start;fill:#000000;fill-opacity:1;stroke:none;stroke-width:0.10775913"
           x="51.562515"
           y="145.8093"
           id="text1664-6-9-1"><tspan
             sodipodi:role="line"
             id="tspan1662-2-7-2"
             x="51.562515"
             y="145.8093"
             style="stroke-width:0.10775913">bug_issue4</tspan></text>
        <g
           id="g1682"
           transform="translate(20.312484,13.096207)">
          <path
             inkscape:connector-curvature="0"
             id="path1552"
             d="m 79.088432,132.92667 c -2.51722,-2.8339 -14.93674,-13.95402 -20.84703,-18.66586 -10.80658,-8.61533 -27.665524,-19.430008 -36.348654,-23.316953 -2.019861,-0.90418 -2.451751,-1.28515 -1.76815,-1.55972 1.51216,-0.60736 14.154838,6.307535 37.047724,20.263203 11.75987,7.16889 21.81466,13.35883 22.34401,13.75541 0.82936,0.62134 0.94023,1.41292 0.80181,5.72427 l -0.16064,5.00324 z"
             style="opacity:0.99299999;fill:#844a1c;fill-opacity:0.75784757;stroke:#000000;stroke-width:0.53538084;stroke-linecap:square;stroke-linejoin:round;stroke-miterlimit:4;stroke-dasharray:none;stroke-dashoffset:0;stroke-opacity:1;paint-order:normal" />
          <path
             inkscape:connector-curvature="0"
             id="path894-2"
             d="m 14.841877,85.074715 c 0.46226,-0.0498 1.18002,-0.15145 1.59504,-0.22581 l 0.75457,-0.1352 -0.29498,-0.5211 c -0.6606,-1.16697 -2.19827,-3.38692 -3.03881,-4.38718 -1.04975,-1.24921 -3.18404,-3.34851 -4.4389801,-4.3662 -1.20032,-0.97341 -3.41164,-2.4379 -4.58954,-3.03953 -0.53251,-0.27198 -0.96842,-0.52743 -0.9687,-0.56767 -5.82e-4,-0.0978 1.30953,0.29896 2.35276,0.71245 4.7165001,1.86938 8.8563901,5.38642 11.5600601,9.82082 l 0.65452,1.0735 v -1.24171 c 0,-3.30939 -1.1378,-6.13559 -3.35773,-8.34035 -1.6531,-1.6418 -3.42848,-2.61267 -7.0393401,-3.84947 -3.79227,-1.29894 -5.82125,-2.18303 -7.33762003,-3.19725 -0.47293,-0.31631 -0.98495,-0.73494 -1.13783,-0.93028 -0.15287,-0.19534 -0.31706,-0.31607 -0.36484,-0.26829 -0.16645,0.16646 -0.0876,3.8897 0.10597,5.00504 1.19473,6.88316 5.06262003,12.19178 10.11053003,13.87655 1.5720501,0.52468 3.7760001,0.76057 5.4349201,0.58168 z"
             style="opacity:0.99299999;fill:#2d6f1a;fill-opacity:1;stroke:none;stroke-width:0.1122368;stroke-linecap:square;stroke-linejoin:round;stroke-miterlimit:4;stroke-dasharray:none;stroke-dashoffset:0;stroke-opacity:1;paint-order:normal" />
          <path
             inkscape:transform-center-y="-5.2916667"
             inkscape:transform-center-x="-11.339286"
             inkscape:connector-curvature="0"
             id="path894-5-6-7"
             d="m 16.609217,105.72738 c 0.12687,-0.35322 0.30228,-0.91285 0.38986,-1.2436 l 0.15926,-0.60137 -0.57189,-0.0289 c -1.28071,-0.0647 -3.82106,0.0129 -5.02035,0.15347 -1.49778,0.17552 -4.1518101,0.735 -5.5199701,1.16362 -1.30861,0.40996 -3.42749,1.31646 -4.39768,1.88142 -0.43861,0.25538 -0.82679003,0.44937 -0.86261003,0.43106 -0.0871,-0.0445 0.75016003,-0.79821 1.50346003,-1.35346 3.40565,-2.51035 8.0609101,-3.85082 12.9991401,-3.7431 l 1.19546,0.0261 -1.10256,-0.57113 c -2.93855,-1.52216 -5.8692001,-2.009098 -8.6485801,-1.43693 -2.0697,0.42607 -3.58891,1.2481 -6.02364003,3.25937 -2.55703997,2.11232 -4.09305997,3.15549 -5.55488997,3.7725 -0.45592,0.19245 -1.01716,0.36576 -1.24719,0.38516 -0.23003,0.0194 -0.398,0.0812 -0.37326,0.1373 0.0862,0.19549 3.42139,1.85169 4.48341,2.22635 6.55406,2.31225 12.6994701,1.99018 16.0638701,-0.84188 1.04776,-0.88198 2.07298,-2.34831 2.52817,-3.61597 z"
             style="opacity:0.99299999;fill:#58d336;fill-opacity:0.75784757;stroke:none;stroke-width:0.10068367;stroke-linecap:square;stroke-linejoin:round;stroke-miterlimit:4;stroke-dasharray:none;stroke-dashoffset:0;stroke-opacity:1;paint-order:normal" />
          <path
             inkscape:transform-center-y="25.702381"
             inkscape:transform-center-x="-12.095238"
             inkscape:connector-curvature="0"
             id="path894-5-6-5"
             d="m 41.468057,115.56244 c 0.0768,-0.36735 0.17314,-0.94587 0.214151,-1.28555 l 0.0746,-0.61762 -0.570399,0.0505 c -1.277361,0.113 -3.78256,0.5412 -4.950892,0.84623 -1.459118,0.38096 -4.010289,1.30206 -5.30602,1.91576 -1.239348,0.58698 -3.212518,1.77778 -4.095268,2.47147 -0.399082,0.31359 -0.756701,0.55939 -0.794711,0.54622 -0.0924,-0.032 0.632571,-0.89429 1.301851,-1.54837 3.025788,-2.95717 7.45096,-4.92852 12.356639,-5.50471 l 1.187591,-0.13949 -1.170951,-0.41317 c -3.120811,-1.10119 -6.090639,-1.17817 -8.764191,-0.22717 -1.990899,0.70819 -3.381838,1.73241 -5.515059,4.06104 -2.24037,2.44561 -3.617381,3.69116 -4.97984,4.50441 -0.42492,0.25364 -0.9568,0.5029 -1.18195,0.55391 -0.22514,0.051 -0.38295,0.13543 -0.35069,0.1876 0.1124,0.18171 3.64459,1.36077 4.748209,1.58498 6.810841,1.38371 12.852673,0.21492 15.793122,-3.05517 0.915728,-1.0184 1.72833,-2.61241 2.003848,-3.93084 z"
             style="opacity:0.99299999;fill:#b0e53d;fill-opacity:1;stroke:none;stroke-width:0.10068367;stroke-linecap:square;stroke-linejoin:round;stroke-miterlimit:4;stroke-dasharray:none;stroke-dashoffset:0;stroke-opacity:1;paint-order:normal" />
          <path
             inkscape:connector-curvature="0"
             id="path894-9-70-9"
             d="m 44.263122,91.500307 c -0.46226,-0.0498 -1.18002,-0.15145 -1.59504,-0.22581 l -0.754573,-0.1352 0.294981,-0.5211 c 0.660602,-1.16697 2.198272,-3.38693 3.038812,-4.387186 1.04975,-1.24921 3.18404,-3.34851 4.43898,-4.3662 1.20032,-0.97341 3.41164,-2.4379 4.58954,-3.03953 0.53251,-0.27198 0.96842,-0.52743 0.9687,-0.56767 5.3e-4,-0.0978 -1.30953,0.29896 -2.35276,0.71245 -4.7165,1.86938 -8.85639,5.38642 -11.560064,9.820826 l -0.654518,1.0735 v -1.24171 c 0,-3.309396 1.137798,-6.135596 3.357732,-8.340356 1.6531,-1.6418 3.42848,-2.61267 7.03934,-3.84947 3.79227,-1.29894 5.82125,-2.18303 7.33762,-3.19724 0.47293,-0.31631 0.98495,-0.73494 1.13783,-0.93028 0.15287,-0.19534 0.31706,-0.31607 0.36484,-0.26829 0.16645,0.16646 0.0876,3.88969 -0.10597,5.00503 -1.19473,6.88316 -5.06262,12.191786 -10.11053,13.876556 -1.57205,0.52468 -3.776,0.76057 -5.43492,0.58168 z"
             style="opacity:0.99299999;fill:#5ad138;fill-opacity:1;stroke:none;stroke-width:0.1122368;stroke-linecap:square;stroke-linejoin:round;stroke-miterlimit:4;stroke-dasharray:none;stroke-dashoffset:0;stroke-opacity:1;paint-order:normal" />
        </g>
      </g>
      <path
         sodipodi:nodetypes="cc"
         inkscape:connector-curvature="0"
         id="path1694"
         d="M 104.15315,142.06845 87.926086,131.26635"
         style="fill:none;stroke:#ffffff;stroke-width:1.20000005;stroke-linecap:butt;stroke-linejoin:miter;stroke-miterlimit:4;stroke-dasharray:none;stroke-opacity:1" />
      <ellipse
         ry="1.6679289"
         rx="1.632441"
         cy="131.26999"
         cx="87.998924"
         id="path1711-7-9-2"
         style="opacity:0.99299999;fill:#343b0e;fill-opacity:1;stroke:#ffffff;stroke-width:1.10038066;stroke-linecap:round;stroke-linejoin:round;stroke-miterlimit:4;stroke-dasharray:none;stroke-dashoffset:0;stroke-opacity:1;paint-order:normal" />
    </g>
    <ellipse
       style="opacity:0.99299999;fill:#343b0e;fill-opacity:1;stroke:#ffffff;stroke-width:1.10038042;stroke-linecap:round;stroke-linejoin:round;stroke-miterlimit:4;stroke-dasharray:none;stroke-dashoffset:0;stroke-opacity:1;paint-order:normal"
       id="path1711-7"
       cx="104.32059"
       cy="142.21851"
       rx="1.632441"
       ry="1.6679289" />
    <ellipse
       style="opacity:0.99299999;fill:#343b0e;fill-opacity:1;stroke:#ffffff;stroke-width:1.10038054;stroke-linecap:round;stroke-linejoin:round;stroke-miterlimit:4;stroke-dasharray:none;stroke-dashoffset:0;stroke-opacity:1;paint-order:normal"
       id="path1711-7-9"
       cx="104.57607"
       cy="106.73847"
       rx="1.632441"
       ry="1.6679289" />
  </g>
</svg>
